<svg class="benefit-image" width="80" height="43" viewBox="0 0 80 43" fill="none" xmlns="http://www.w3.org/2000/svg" xmlns:xlink="http://www.w3.org/1999/xlink"> <g clip-path="url(#clip0_432_445)"> <path d="M45.2887 0C46.3415 1.07416 48.1668 1.78098 49.2328 2.75182C49.3754 2.88138 49.6067 2.99946 49.5837 3.22905L39.9982 23.3003L30.2619 3.36516C30.1815 3.05849 30.4242 2.92894 30.6161 2.75182C31.6772 1.7695 33.4959 1.05612 34.5618 0L45.2887 0Z" fill="white"/> <path d="M35.4556 23.1526C24.363 23.8332 13.4705 26.7818 3.72103 31.9067L0 34.0058C8.80977 26.0488 20.701 21.9014 32.5529 20.5353C32.7365 20.5156 32.8595 20.6025 33.0071 20.6862C33.1547 20.7698 35.5818 23.0313 35.4572 23.1526H35.4556Z" fill="white"/> <path d="M79.9996 34.1517L70.4175 29.4976C62.1751 26.0619 53.3785 23.8332 44.3965 23.2281L47.2893 20.5615C59.2544 21.9932 70.7094 26.772 80.0013 34.1517H79.9996Z" fill="white"/> <path d="M42.6089 20.6945L50.2035 4.91992L51.9713 11.3272L45.2918 18.1657L42.6089 20.6945Z" fill="white"/> <path d="M37.0936 20.5503C33.8875 17.6115 30.9421 14.4103 27.8804 11.3289C28.315 9.1576 28.989 7.01584 29.722 4.92163L37.0936 20.5503Z" fill="white"/> <path d="M17.8029 41.9678H62.0486C62.329 41.9678 62.329 42.691 62.0486 42.691H17.8029C17.575 42.691 17.4569 42.0973 17.8029 41.9678Z" fill="white"/> <path d="M51.53 33.878L52.8125 37.481C53.2339 36.8004 53.5898 34.4864 54.0014 34.0076C54.1933 33.7845 54.5803 33.8173 54.8296 33.9305L56.0153 37.4826C56.2268 37.4662 56.2498 37.2694 56.317 37.1267C56.7647 36.1789 57.0222 34.8866 57.3682 33.8797L58.3965 33.8665L56.5302 38.9356L55.9595 39.0389C55.3954 38.7978 54.8509 36.0837 54.4475 35.4556L53.1634 38.852L52.3615 38.9405L50.5149 34.0666C50.4247 33.6796 51.2857 33.9108 51.5267 33.8813L51.53 33.878Z" fill="white"/> <path d="M19.5151 33.863C20.8681 33.5925 21.2518 35.3751 21.9751 36.1803C23 35.5161 23.0935 33.4809 24.7302 33.863V38.9288L23.9036 39.0387L23.6872 38.8567V35.4554L22.121 37.6267L20.4089 35.4554V38.8567L19.5151 39.0731V33.863Z" fill="white"/> <path d="M32.0298 33.8633L33.0088 33.9978L35.7541 37.3367V33.8633H36.6479V39.0734C36.3789 38.9815 36.064 39.1193 35.8377 38.9307C34.8866 38.1419 34.0469 36.2084 32.9236 35.4557V38.9291L32.2659 39.0603L32.0298 38.8569V33.8649V33.8633Z" fill="white"/> <path d="M67.2624 33.8631C68.945 34.1337 69.1976 36.5854 67.4855 36.9035L68.6761 39.0715C66.8246 39.3782 67.2608 36.6346 65.2502 37.1905V39.0732L64.3564 38.855V33.8631C65.2453 33.9631 66.4146 33.7269 67.2608 33.8631H67.2624ZM65.2502 34.7306L65.3912 36.405C66.39 36.5493 67.8954 36.5772 67.6363 35.239C67.4822 34.4469 65.8488 34.806 65.2502 34.7306Z" fill="white"/> <path d="M27.5199 33.8959C29.0352 33.5958 30.7145 34.1353 31.0687 35.7359C32.0133 39.9965 25.055 40.2162 25.6372 35.9737C25.7487 35.1603 26.6868 34.0615 27.5199 33.8959ZM27.9692 34.6175C26.0865 34.9684 26.1095 37.9482 28.0955 38.1925C31.0064 38.5517 30.7653 34.0943 27.9692 34.6175Z" fill="white"/> <path d="M37.9893 39.0734V33.8633H40.4475C41.5758 33.8633 42.7566 35.3359 42.7549 36.3954C42.7533 38.8848 39.9523 39.2177 37.9893 39.0734ZM38.883 38.2042C40.1655 38.2944 41.6726 38.0747 41.7267 36.5413C41.7874 34.8128 40.3409 34.5668 38.883 34.7308V38.2042Z" fill="white"/> <path d="M69.7202 38.9274V33.8616H72.3277C72.3933 33.8616 73.2166 34.2371 73.3461 34.3191C74.7188 35.1834 74.9123 37.1595 73.7282 38.2615C73.6118 38.3698 72.6901 38.9274 72.6262 38.9274H69.7219H69.7202ZM70.614 34.7307V37.986L70.86 38.1795C72.5327 38.5059 74.1612 37.2973 73.3527 35.613C72.823 34.511 71.6685 34.7307 70.614 34.7291V34.7307Z" fill="white"/> <path d="M5.66113 39.0734V33.8633H8.26864C8.43428 33.8633 9.34936 34.3733 9.52484 34.5242C10.5564 35.4114 10.5974 37.2678 9.61504 38.2108C8.46544 39.3145 7.08624 38.7667 5.66113 39.0734ZM6.5549 34.7308V38.2042C8.25552 38.442 9.99386 37.5548 9.22145 35.6853C8.72783 34.4914 7.6471 34.7275 6.5549 34.7308Z" fill="white"/> <path d="M18.6198 39.0732L17.6752 38.9436L17.0323 37.794H14.6232C14.3051 38.5599 14.2772 39.1716 13.2588 39.0732C13.49 38.409 15.2169 34.1058 15.4858 33.9303C15.7039 33.7877 16.2861 33.8008 16.4616 34.0074L18.6198 39.0732ZM16.8339 36.9003C16.6715 36.7445 16.0221 34.8471 15.7925 35.0209L15.0463 36.9003H16.8339Z" fill="white"/> <path d="M61.3536 33.8879L63.6118 38.9275L62.7131 39.0144L62.0243 37.7943H59.6152L59.0757 38.9439L58.2524 39.0734L60.3499 34.0929C60.5516 33.7698 61.0174 33.8256 61.3569 33.8879H61.3536ZM61.675 36.9021C61.7898 36.7972 60.9616 34.8883 60.7829 35.0211L60.0367 36.9005H61.675V36.9021Z" fill="white"/> <path d="M50.8001 38.9272C49.7259 39.1208 49.6899 38.5484 49.3684 37.7612L46.7987 37.7908C46.5543 38.5123 46.4198 39.3667 45.4375 38.9272C45.7934 38.3041 47.394 34.1091 47.6662 33.9303C47.8827 33.7877 48.4665 33.8008 48.6419 34.0074L50.8001 38.9272ZM49.0126 36.9003C48.5927 36.323 48.5649 35.444 47.9712 35.0209L47.225 36.9003H49.0126Z" fill="white"/> <path d="M12.3648 33.8633V38.8553C12.1155 39.1078 11.5301 39.1537 11.3218 38.8553V33.8633H12.3648Z" fill="white"/> </g> <defs> <clipPath id=""> <rect width="79.9997" height="42.691" fill="white"/> </clipPath> </defs> </svg>