<svg class="benefit-image" width="39" height="73" viewBox="0 0 39 73" fill="none" xmlns="http://www.w3.org/2000/svg" xmlns:xlink="http://www.w3.org/1999/xlink"> <path d="M25.9954 6.36237L21.7445 9.78134L23.3226 15.3894L19.1204 11.8926L14.8721 15.3145L16.5295 9.73525L12.3247 6.24139L17.5474 6.29036L19.1997 0.708252L20.7726 6.31916L25.9954 6.36237Z" fill="#FAFAFA"/> <path d="M15.6009 39.976C15.6009 39.976 15.7441 34.5004 13.7747 30.4968C10.5572 23.967 3.51596 21.0751 3.51596 21.0751L3.42389 17.8405C3.42389 17.8405 10.9101 21.6541 14.1839 29.7479C15.9794 34.1865 15.8106 39.9702 15.8106 39.9702L15.6009 39.976Z" fill="#FAFAFA"/> <path d="M22.7205 39.9762C22.7205 39.9762 22.5773 34.5007 24.5467 30.497C27.7617 23.9644 34.8055 21.0754 34.8055 21.0754L34.8975 17.8408C34.8975 17.8408 27.4113 21.6543 24.1375 29.7481C22.342 34.1867 22.5108 39.9705 22.5108 39.9705L22.7205 39.9762Z" fill="#FAFAFA"/> <path d="M0.508301 50.3942H0.93543V52.2894H3.12222V50.3942H3.54935V54.66H3.12222V52.7388H0.93543V54.66H0.508301V50.3942Z" fill="#FAFAFA"/> <path d="M6.0228 50.3655H6.42436L8.15077 54.663H7.69039L7.24536 53.5367H5.18389L4.73375 54.663H4.29639L6.0228 50.3655ZM7.07912 53.096L6.21719 50.9271L5.35014 53.096H7.07912Z" fill="#FAFAFA"/> <path d="M8.896 50.3941H9.32313V54.2163H11.4562V54.6599H8.896V50.3941Z" fill="#FAFAFA"/> <path d="M12.2448 50.3941H12.6719V54.2163H14.805V54.6599H12.2448V50.3941Z" fill="#FAFAFA"/> <path d="M23.712 50.3941H26.4333V50.8377H24.1391V52.3614H26.1903V52.7992H24.1391V54.6599H23.712V50.3941Z" fill="#FAFAFA"/> <path d="M28.2298 50.3655H28.6314L30.3578 54.663H29.8974L29.455 53.5367H27.3935L26.9433 54.663H26.506L28.2298 50.3655ZM29.2862 53.096L28.4242 50.9271L27.5572 53.096H29.2862Z" fill="#FAFAFA"/> <path d="M31.1032 50.3941H31.5355L32.9166 52.7214L34.2977 50.3941H34.73V54.6599H34.3028V51.2035L32.9217 53.4905H32.9012L31.5201 51.2092V54.6599H31.1032V50.3941Z" fill="#FAFAFA"/> <path d="M35.8012 50.3941H38.5405V50.8319H36.2283V52.2894H38.2949V52.7272H36.2283V54.2221H38.566V54.6599H35.8012V50.3941Z" fill="#FAFAFA"/> <path d="M16.9139 52.5574V52.5488C16.9139 51.8892 17.3538 51.3102 18.0009 51.3102C18.648 51.3102 19.0802 51.8806 19.0802 52.5402V52.5459C19.0802 53.2055 18.6403 53.7845 17.9932 53.7845C17.3487 53.7873 16.9139 53.217 16.9139 52.5574ZM18.8321 52.5574V52.5488C18.8321 52.0044 18.4792 51.5608 17.9932 51.5608C17.5073 51.5608 17.162 51.9986 17.162 52.543V52.5488C17.162 53.0932 17.5149 53.5368 18.0009 53.5368C18.4868 53.5396 18.8321 53.1018 18.8321 52.5574Z" fill="#FAFAFA"/> <path d="M19.5894 51.3536H21.1163V51.6042H19.8298V52.4596H20.9807V52.7073H19.8298V53.75H19.5894V51.3536Z" fill="#FAFAFA"/> <path d="M4.05499 13.304C4.05499 13.304 18.1221 23.1577 17.3548 39.976H17.654C17.654 39.976 18.7717 21.4266 6.98095 11.7343L4.05499 13.304Z" fill="#FAFAFA"/> <path d="M34.5537 13.304C34.5537 13.304 20.4866 23.1577 21.2539 39.976H20.9547C20.9547 39.976 19.837 21.4266 31.6277 11.7343L34.5537 13.304Z" fill="#FAFAFA"/> <path d="M21.0417 19.6266C21.0417 19.6266 19.7629 21.3375 19.3792 31.2488H19.1874C18.8037 21.3404 17.5249 19.6266 17.5249 19.6266L19.2846 16.5792L21.0417 19.6266Z" fill="#FAFAFA"/> <path d="M9.60523 44.9303V44.8986C9.60523 44.3455 9.44922 43.8876 9.15253 43.5679C8.81748 43.2078 8.31618 43.0177 7.70234 43.0177H5.69458V48.7381H6.83274V46.8745H7.48494L8.45941 48.7381H9.76381L8.63333 46.6181C9.08092 46.3992 9.60523 45.9297 9.60523 44.9303ZM8.45941 44.9562V44.9648C8.45941 45.4833 8.14481 45.7915 7.62049 45.7915H6.83529V44.1266H7.60003C8.16016 44.1266 8.45941 44.4147 8.45941 44.9562ZM25.6775 42.986L23.767 48.741H24.9154L25.3016 47.5082H27.0894L27.4832 48.741H28.6623L26.7518 42.986H25.6775ZM26.7415 46.4223H25.6468L26.1967 44.671L26.7415 46.4223ZM31.9847 45.8145L33.5065 43.0177H32.2405L31.3402 44.8323L30.4552 43.0177H29.1585L30.665 45.8289L29.0894 48.7381H30.3555L31.3172 46.8198L32.2712 48.7381H33.5679L31.9847 45.8145ZM11.948 47.632V46.4136H13.9865V45.3047H11.948V44.1266H14.2653V43.0177H10.8176V48.7381H12.9583L13.4775 47.6291H11.948V47.632ZM21.7055 43.0177L20.5546 44.8726L19.3908 43.0177H19.378L18.2092 45.5121V48.741H19.3166V45.1981L20.5136 46.9551L20.5187 46.9667H20.5673L21.7797 45.1837V48.7438H22.8948V43.0235H21.7055V43.0177Z" fill="#FAFAFA"/> <path d="M16.8081 43.0178L14.1251 48.741H15.5063L18.1892 43.0178H16.8081Z" fill="#FAFAFA"/> <path d="M34.1152 42.8219C34.3249 42.8219 34.4911 43.0091 34.4911 43.2424C34.4911 43.4786 34.3249 43.6658 34.1152 43.6658C33.9054 43.6658 33.7366 43.4815 33.7366 43.2424C33.7366 43.0091 33.9054 42.8219 34.1152 42.8219ZM34.1152 42.8881C33.9464 42.8881 33.8108 43.0466 33.8108 43.2424C33.8108 43.4412 33.9489 43.5996 34.1177 43.5996C34.2865 43.5996 34.4221 43.4412 34.4221 43.2453C34.4221 43.0466 34.2865 42.8881 34.1152 42.8881ZM34.0436 43.4873H33.9771V43.0178C34.0129 43.012 34.0461 43.0062 34.0973 43.0062C34.1612 43.0062 34.2047 43.0206 34.2303 43.0408C34.2558 43.061 34.2686 43.0926 34.2686 43.1387C34.2686 43.2021 34.2303 43.2395 34.1842 43.254V43.2568C34.2226 43.2655 34.2482 43.3 34.2558 43.372C34.2661 43.4441 34.2763 43.4729 34.284 43.4873H34.2124C34.2021 43.4729 34.1919 43.4297 34.1842 43.3663C34.174 43.3058 34.1459 43.2828 34.0921 43.2828H34.0436V43.4873ZM34.0436 43.228H34.0921C34.1484 43.228 34.197 43.205 34.197 43.1474C34.197 43.1071 34.1689 43.0638 34.0921 43.0638C34.0691 43.0638 34.0538 43.0667 34.0436 43.0667V43.228Z" fill="#FAFAFA"/> <g clip-path="url(#clip0_154_968)"> <path d="M3.61323 70.1352L7.22091 67.5481C7.76789 67.1629 7.97934 66.8263 7.97934 66.4908C7.97934 66.1175 7.69345 65.8435 7.1961 65.8435C6.69875 65.8435 6.23808 66.1542 5.51632 66.9256L3.60028 65.2965C4.60793 64.0526 5.62852 63.3805 7.44423 63.3805C9.43472 63.3805 10.8653 64.5748 10.8653 66.2297V66.2546C10.8653 67.5859 10.1565 68.3076 9.11106 68.9787L7.55643 69.9734H10.9527V72.2497H3.61323V70.1352Z" fill="#FAFAFA"/> <path d="M11.5257 67.9212V67.8964C11.5257 65.4948 13.0933 63.3555 15.73 63.3555C18.3667 63.3555 19.9095 65.47 19.9095 67.8715V67.8964C19.9095 70.2968 18.3419 72.4372 15.7041 72.4372C13.0663 72.4372 11.5247 70.3227 11.5247 67.9212H11.5257ZM17.0236 67.9212V67.8964C17.0236 66.7021 16.4885 65.8811 15.7052 65.8811C14.922 65.8811 14.4117 66.6773 14.4117 67.8715V67.8964C14.4117 69.0906 14.9468 69.9117 15.73 69.9117C16.5133 69.9117 17.0236 69.1155 17.0236 67.9212Z" fill="#FAFAFA"/> <path d="M20.3464 70.1349L23.9541 67.5478C24.501 67.1626 24.7125 66.826 24.7125 66.4905C24.7125 66.1172 24.4266 65.8432 23.9292 65.8432C23.4319 65.8432 22.9712 66.1539 22.2495 66.9253L20.3334 65.2952C21.3411 64.0523 22.3617 63.3802 24.1774 63.3802C26.1679 63.3802 27.5984 64.5745 27.5984 66.2294V66.2543C27.5984 67.5856 26.8896 68.3073 25.8442 68.9784L24.2896 69.9731H27.6858V72.2494H20.3464V70.1349Z" fill="#FAFAFA"/> <path d="M27.8855 70.8696L29.6149 69.0906C30.2622 69.7001 30.9462 70.0357 31.668 70.0357C32.3153 70.0357 32.6637 69.7498 32.6637 69.3387V69.3139C32.6637 68.891 32.2905 68.617 31.5191 68.617H30.287L29.9019 67.3234L31.8179 65.8055H28.5835V63.5421H35.2767V65.5444L33.324 67.0127C34.6305 67.3612 35.4763 68.1196 35.4763 69.4887V69.5135C35.4763 71.3918 33.8343 72.4372 31.9064 72.4372C30.1155 72.4372 28.8457 71.8525 27.8877 70.8696H27.8855Z" fill="#FAFAFA"/> </g> <defs> <clipPath id=""> <rect width="31.8736" height="9.08178" fill="white" transform="translate(3.60046 63.3557)"/> </clipPath> </defs> </svg>