<svg class="benefit-image" width="67" height="45" viewBox="0 0 67 45" fill="none" xmlns="http://www.w3.org/2000/svg" xmlns:xlink="http://www.w3.org/1999/xlink"> <g clip-path="url(#clip0_154_951)"> <path d="M37.3104 32.0798L37.4693 32.3509C36.7262 34.073 35.9551 35.8091 34.8475 37.3279C33.2072 39.5758 30.6322 41.9405 28.0549 43.0364C19.914 46.4946 12.3666 42.3658 11.7847 33.4234C11.1632 23.8244 18.2035 12.3351 28.7886 12.9146C35.3336 13.2721 39.0068 18.8707 38.717 25.0768L33.3988 25.1376C33.074 24.9717 33.0016 23.509 32.8964 23.0627C31.7655 18.2748 27.7908 16.2163 23.3886 18.8613C18.9326 21.5368 16.8413 28.3131 17.4208 33.2808C17.8063 36.5732 20.185 39.6903 23.7578 39.4426C27.7114 39.1669 30.5294 35.5941 31.9431 32.2083C32.2515 31.8648 32.338 32.0845 32.5226 32.0845H37.3127L37.3104 32.0798Z" fill="white"/> <path d="M41.2827 25.0698L41.1589 24.7147C42.1519 22.5766 43.1894 20.3965 44.734 18.5903C49.0381 13.5548 57.3823 10.4471 63.0113 15.2606C69.6404 20.9293 66.834 33.2178 61.614 38.9753C53.8843 47.5041 40.3644 45.7656 39.8176 32.8439C39.8013 32.47 39.7616 32.0564 40.2289 32.0191L45.4303 32.0822C45.5915 36.3325 48.1829 40.2838 52.938 39.2954C59.3614 37.9612 62.8197 27.3855 60.677 21.8032C58.3333 15.6999 51.5126 17.1813 48.3745 21.7635C47.6641 22.7986 47.2225 24.0441 46.5425 25.0722H41.285L41.2827 25.0698Z" fill="white"/> <path d="M2.02695 43.6461C1.99891 43.6461 1.93816 43.7816 1.8517 43.7138C1.72552 43.618 1.73253 43.4965 1.72552 43.354C1.71384 43.0269 1.91946 41.9193 1.98255 41.4987C2.66953 36.9142 3.71635 32.2502 4.51082 27.6704C5.01553 24.7566 5.42678 21.8241 6.03198 18.9313L5.76794 18.756C5.09732 18.8331 0.699731 20.2281 0.452045 20.1113C0.0501404 19.9173 0.241746 18.1275 0.216043 17.6531C0.195013 17.2559 -0.206892 15.9076 0.19034 15.7277C0.587571 15.5478 1.25118 15.4964 1.67178 15.3679C5.33565 14.2533 7.65362 13.1644 11.5932 13.2532C12.0582 13.2626 12.2942 12.9027 12.2522 13.7906C12.14 16.0899 11.189 19.3893 10.7684 21.7773C9.56266 28.6191 8.27049 35.4655 7.12086 42.3142C7.04842 42.7511 7.28676 43.4708 6.75167 43.7115C6.58109 43.7886 6.50632 43.6461 6.4666 43.6461C4.98749 43.6461 3.50605 43.6414 2.02695 43.6461Z" fill="white"/> <path d="M27.7301 27.7733V27.75C27.7301 27.3878 27.6133 27.0817 27.3937 26.8597C27.1483 26.6143 26.7674 26.4788 26.3211 26.4788H24.8677V30.4581H25.6131V29.0912H26.1809C26.1809 29.0912 26.1879 29.0912 26.1926 29.0912L26.9988 30.4348L27.0128 30.4605H27.8773L26.9474 28.9346C27.4497 28.7337 27.7255 28.3224 27.7255 27.7733H27.7301ZM26.9801 27.7827V27.7944C26.9801 28.1822 26.709 28.4112 26.258 28.4112H25.6178V27.1705H26.2697C26.7277 27.1705 26.9824 27.3878 26.9824 27.7827H26.9801Z" fill="white"/> <path d="M42.3459 26.4576H41.6519L40.2172 30.3902L40.1915 30.4603H40.9509L41.2711 29.5467H42.7034L43.0236 30.4603H43.804L42.3553 26.4927L42.3436 26.4576H42.3459ZM42.4674 28.8714H41.5071L41.9861 27.5232L42.4651 28.8714H42.4674Z" fill="white"/> <path d="M46.8462 28.425L48.0192 26.4809H47.1827L46.4163 27.8221L45.6592 26.4809H44.8063L45.9723 28.432L44.7573 30.4602H45.5938L46.4046 29.0349L47.2014 30.4345L47.2154 30.4602H48.0753L46.8462 28.425Z" fill="white"/> <path d="M32.3146 30.4206L32.2912 30.4626H33.1207L35.1933 26.5371L35.2167 26.495H34.3872L32.3146 30.4206Z" fill="white"/> <path d="M37.3432 28.2078L36.4132 26.5441L36.3665 26.46L35.6304 27.8526L35.6257 30.4603H36.3548V27.8736L37.2824 29.4883L37.2964 29.514H37.3736L38.3222 27.862V30.4603H39.063V26.481H38.3035L37.3432 28.2078Z" fill="white"/> <path d="M29.2208 30.4602H31.0785L31.4406 29.7756H29.9615V28.7989H31.5622V28.1142H29.9615V27.1655H31.7654V26.4809H29.2208V30.4602Z" fill="white"/> <path d="M24.7554 2.38111H22.0402V1.02118H29.1132V2.38111H26.4027V9.77195H24.7577V2.38111H24.7554Z" fill="white"/> <path d="M37.9972 5.36019C37.9972 7.78563 36.5742 9.89797 33.7609 9.89797C30.9475 9.89797 29.6367 7.9048 29.6367 5.39523C29.6367 2.88567 31.1812 0.894836 33.8754 0.894836C36.4036 0.894836 37.9972 2.70808 37.9972 5.36019ZM31.3354 5.35785C31.3354 7.12903 32.1602 8.54738 33.8239 8.54738C35.6255 8.54738 36.2961 7.04725 36.2961 5.38122C36.2961 3.71518 35.5367 2.24542 33.8053 2.24542C32.0738 2.24542 31.3354 3.59835 31.3354 5.35785Z" fill="white"/> <path d="M39.7403 1.02118H43.2593C45.0655 1.02118 46.2946 2.03529 46.2946 3.67562C46.2946 5.50989 44.9277 6.39315 43.2056 6.39315H41.3853V9.77429H39.7403V1.02118ZM41.3853 5.06827H43.0303C44.0164 5.06827 44.6286 4.64533 44.6286 3.71067C44.6286 2.77601 43.951 2.3484 43.0724 2.3484H41.3876V5.0706L41.3853 5.06827Z" fill="white"/> </g> <defs> <clipPath id="clip0_154_951"> <rect width="66.8774" height="43.3566" fill="white" transform="translate(0.0148926 0.894714)"/> </clipPath> </defs> </svg>