<svg data-editable="model.boxes[1].omniImage.imageData" class="benefit-image" width="89" height="60" viewBox="0 0 89 60" fill="none" xmlns="http://www.w3.org/2000/svg" xmlns:xlink="http://www.w3.org/1999/xlink"> <g clip-path="url(#clip0_46_1236)"> <path d="M51.2496 23.0212C50.7818 23.1147 50.6414 22.756 50.3451 22.5408C48.7294 21.3587 47.0607 20.2358 45.4201 19.0849C45.0302 18.8104 44.4157 18.1897 43.9572 18.1523C43.1276 18.0805 42.8406 18.5983 42.2636 19.01C40.8943 19.9863 39.5219 20.9501 38.162 21.942C37.8438 22.1759 36.8052 23.1615 36.487 23.0835C36.4091 23.0648 36.3155 22.9681 36.2968 22.8902C36.6336 21.5926 37.1608 20.32 37.5787 19.035C39.4315 13.299 41.1314 7.50063 42.9997 1.77712C43.1369 1.35292 43.2742 0.800845 43.5892 0.492057C43.7888 0.457747 44.1849 1.47769 44.2567 1.68354C44.3035 1.81455 44.2723 1.96114 44.3128 2.07655C46.5679 8.74202 48.7606 15.3701 50.9876 22.048C51.0875 22.3506 51.3931 22.5595 51.2496 23.0212Z" fill="#FFFDF9"/> <path d="M70.1886 18.3893C70.3445 18.2895 71.1586 18.7074 71.3551 18.8135C77.3718 22.1041 83.4447 27.4876 87.7989 32.7527C88.4633 33.5574 88.9218 33.7383 88.8875 34.9641C88.8719 35.5255 88.8874 36.3521 88.7752 36.873C88.7034 37.2161 88.6192 37.3533 88.248 37.3938C87.4059 37.4905 85.8432 37.4781 84.9543 37.4718C84.8077 37.4718 83.8813 37.3658 83.8252 37.3221C83.3948 36.639 83.0797 35.878 82.6587 35.1949C82.2594 34.5461 81.7229 33.7601 81.2831 33.1269C78.2264 28.7197 74.5397 24.7397 70.3695 21.3649C70.0357 20.897 70.1917 19.6307 70.1792 19.01C70.1792 18.8696 70.0482 18.4735 70.1855 18.3862L70.1886 18.3893Z" fill="#FFFDF9"/> <path d="M21.6995 23.4701C21.5966 23.1021 21.8648 22.9305 21.9615 22.6467C22.6446 20.6287 23.2372 18.5888 23.8891 16.5676C24.488 14.7087 25.1804 12.8434 25.7574 10.9533C25.8573 10.6227 26.1536 9.02258 26.3345 8.91029C26.4312 8.85103 26.5528 8.86039 26.6589 8.88846L31.5683 23.2019C31.4747 23.492 30.9632 23.1832 30.801 23.0896C30.0493 22.6467 29.204 21.8389 28.4554 21.318C27.9689 20.9811 27.4386 20.7035 26.9895 20.3136C26.3657 20.0516 25.9196 20.6879 25.4611 20.9936C24.5005 21.633 22.8941 23.0428 21.974 23.4171C21.8804 23.4546 21.8056 23.4982 21.6964 23.4764L21.6995 23.4701Z" fill="#FFFDF9"/> <path d="M60.7285 8.72953C60.8377 8.70146 60.8658 8.72953 60.9406 8.79815C61.1465 8.99154 61.3679 10.3047 61.4802 10.654C61.9387 12.0732 62.5376 13.4799 63.0211 14.8741C63.8164 17.1635 64.4028 19.5995 65.2793 21.8952C65.3697 22.1322 66.1464 23.2364 65.5756 23.3237C65.167 23.3861 63.8102 22.126 63.3985 21.8328C63.3018 21.7642 63.1489 21.7548 63.0335 21.6737C62.5189 21.3057 61.7578 20.5976 61.2213 20.3419C60.4977 19.9988 60.2076 20.5914 59.7429 20.922C58.8571 21.5521 57.8777 22.0823 57.1229 22.8683C56.8172 22.9089 56.3275 23.5358 56.0842 23.4641C55.6694 23.3424 56.3119 22.2351 56.3961 21.9919C57.6843 18.1866 58.7947 14.3532 60.0579 10.5355C60.1702 10.1955 60.4042 8.81687 60.7285 8.72953Z" fill="#FFFDF9"/> <path d="M24.9683 52.4559C25.7075 52.2906 26.1224 52.7834 26.559 53.3011C27.0612 53.9 27.5603 54.555 28.0562 55.1726C28.3057 55.4814 28.7829 56.3921 29.1416 56.414C29.8933 56.4576 29.5596 55.5063 29.5502 55.0977C29.5377 54.633 29.4691 53.1296 29.5689 52.7896C29.6843 52.3935 30.4922 52.303 30.7542 52.6212C31.0848 53.0329 30.8228 55.3317 30.8228 55.996C30.8228 56.9224 31.0131 58.1544 30.9039 59.0652C30.8446 59.5674 29.9432 59.4551 29.622 59.2149L26.5621 55.3161C26.1879 55.0166 25.9477 55.3067 25.8947 55.6997C25.7481 56.7695 26.0007 58.1014 25.8759 59.1993C25.773 59.505 24.5659 59.5455 24.6127 58.9903C24.7406 57.0721 24.4568 54.9636 24.6127 53.0703C24.6346 52.7958 24.6595 52.5214 24.9683 52.4527V52.4559Z" fill="#FFFDF9"/> <path d="M48.9133 52.459C49.4217 52.3685 50.5882 52.409 51.1434 52.4371C52.4534 52.5089 54.0878 52.7709 54.2469 54.3491C54.3342 55.2006 54.1377 55.8182 53.5015 56.3734C53.1584 56.6728 52.6281 56.6947 52.9837 57.4089C53.1677 57.777 54.2282 58.8936 54.2469 59.1463C54.2719 59.5143 53.4547 59.4395 53.1584 59.4051C52.7466 59.3552 52.2164 58.6223 51.9669 58.276C51.8577 58.1232 51.8452 57.9236 51.7361 57.7583C51.5177 57.4245 50.95 57.0128 50.5414 57.0003C49.1223 56.9567 49.9644 58.6753 49.612 59.2211C49.4217 59.5143 48.6762 59.5517 48.4766 59.2991C48.4267 59.2367 48.3394 58.145 48.33 57.9485C48.2832 56.8537 48.3394 55.6778 48.33 54.5799C48.3238 53.9904 48.1741 52.5931 48.9133 52.4621V52.459ZM50.2607 53.7315C50.0237 53.769 49.7336 53.8501 49.6806 54.1245C49.6369 54.3554 49.6494 55.4595 49.7492 55.6248C49.7804 55.6778 49.9363 55.7995 49.9987 55.8244C50.2233 55.9149 51.7548 55.9242 52.0199 55.865C52.1758 55.8307 52.7809 55.3316 52.8402 55.1881C53.1178 54.502 52.5938 53.7752 51.8764 53.7128C51.5021 53.6816 50.6225 53.6723 50.2607 53.7284V53.7315Z" fill="#FFFDF9"/> <path d="M34.3256 40.1852C35.0024 40.1041 36.0847 40.101 36.7023 40.3849C40.2861 42.0348 39.419 46.754 35.5701 47.2687C33.6487 47.5275 31.5433 46.0678 31.3562 44.0841C31.1971 42.4029 32.6319 40.388 34.3256 40.1821V40.1852ZM34.8464 41.305C34.7529 41.3237 33.9762 41.6824 33.8671 41.7479C32.6163 42.4934 32.4448 44.2775 33.4054 45.3348C34.1696 46.177 35.8352 46.2799 36.7023 45.5563C37.9219 44.5395 37.7971 42.6774 36.5089 41.7791C36.1627 41.5389 35.255 41.2208 34.8464 41.305Z" fill="#FFFDF9"/> <path d="M33.3493 52.4559C33.761 52.3655 35.2519 52.3998 35.7291 52.4372C38.5114 52.6493 40.5325 54.9356 39.0697 57.6554C38.6018 58.5257 37.1889 59.2337 36.2313 59.3834C35.7011 59.4676 33.9388 59.4739 33.4023 59.4052C33.1653 59.374 33.0062 59.2368 32.9906 58.9935C33.1185 57.0753 32.8346 54.9668 32.9906 53.0735C33.0124 52.799 33.0374 52.5245 33.3462 52.4559H33.3493ZM34.7716 53.7316C34.5626 53.7691 34.3131 53.8969 34.2694 54.1278L34.3068 57.7552C34.4129 57.8706 34.5127 58.0235 34.6811 58.0547C34.9681 58.1108 35.8508 58.0827 36.1783 58.0609C37.9156 57.933 38.5363 56.0179 37.7409 54.6206C37.2513 53.7628 35.6543 53.5757 34.7716 53.7347V53.7316Z" fill="#FFFDF9"/> <path d="M16.5966 15.4011C16.8087 15.5228 16.7994 16.942 16.762 17.2258C16.7183 17.5658 16.1007 17.9058 15.8044 18.0617C14.6566 18.6637 13.2967 19.1472 12.1707 19.8146C7.6636 22.4846 3.99244 26.2836 0.941986 30.5131C0.711174 30.7501 0.542744 31.3147 0.377433 31.5205C0.159097 31.7888 0.00314325 31.4457 2.41737e-05 31.2211C-0.0030949 30.7876 0.296337 30.7033 0.483481 30.4289C0.670626 30.1544 0.835937 29.8082 1.01684 29.5399C4.70048 24.0815 9.26057 19.6618 14.9404 16.2246C15.271 16.025 16.0103 15.5571 16.3159 15.4292C16.4033 15.3918 16.5093 15.3512 16.5966 15.4011Z" fill="#FFFDF9"/> <path d="M41.5774 52.4558C42.9903 52.5275 44.5904 52.3092 45.9815 52.4371C46.7831 52.5119 46.8985 53.7221 46.0408 53.7627C45.183 53.8032 44.1662 53.6285 43.2835 53.7159C42.9279 53.7502 42.5692 53.8438 42.5692 54.2742C42.5692 54.374 42.6378 55.0134 42.6597 55.0852C42.6846 55.1694 42.7657 55.2349 42.8406 55.2785C43.2741 55.5249 45.0302 55.2661 45.6696 55.3659C46.309 55.4657 46.2934 56.2673 45.732 56.3952C44.999 56.5605 43.6952 56.2361 43.0121 56.4451C42.4632 56.6135 42.379 57.9734 43.0683 58.1169C44.1911 58.0576 45.314 58.0982 46.44 58.1886C46.7082 58.2728 46.6459 59.1836 46.5336 59.2959C46.4369 59.3926 46.2529 59.3988 46.125 59.4113C45.0582 59.508 42.9217 59.508 41.855 59.4113C41.6429 59.3926 41.4713 59.3708 41.3341 59.1836L41.2935 53.0796C41.2998 52.8862 41.3621 52.5244 41.5711 52.462L41.5774 52.4558Z" fill="#FFFDF9"/> <path d="M68.0644 52.3092C68.8567 52.1657 69.5585 52.4059 70.2291 52.802C71.6451 53.6411 72.0662 55.5811 71.6389 57.0845C70.8186 59.9697 67.2317 60.4095 65.853 57.6304C65.1294 56.1769 65.4538 54.0434 66.7388 53.0048C66.8137 52.9455 67.9896 52.3217 68.0644 52.3092ZM68.4418 53.6598C67.0726 53.8064 66.77 55.1912 66.8885 56.3702C66.926 56.7477 67.2098 57.5368 67.4843 57.7957C68.0239 58.3072 69.4119 58.3509 69.8704 57.7052C70.4911 56.8256 70.5909 55.5437 70.0981 54.583C69.7394 53.8843 69.2497 53.5724 68.445 53.6598H68.4418Z" fill="#FFFDF9"/> <path d="M59.8395 40.1854C60.9281 40.0607 61.6205 40.1854 62.4346 40.9122C64.8643 43.0675 63.1832 48.1921 59.4621 47.1036C57.4253 46.5078 56.8078 43.9876 57.5501 42.1629C57.9181 41.2584 58.8383 40.2977 59.8364 40.1823L59.8395 40.1854ZM59.983 41.3021C59.8988 41.327 59.0691 41.954 59.0161 42.0569C58.4546 43.1361 58.4889 45.1354 59.5931 45.8559C59.8801 46.0431 60.4477 46.0462 60.7846 45.9994C61.895 45.8466 62.2786 44.1373 62.1663 43.2078C62.0603 42.3376 60.9499 41.0151 59.983 41.3052V41.3021Z" fill="#FFFDF9"/> <path d="M41.0564 40.176C41.2405 40.123 41.4401 40.2384 41.6335 40.2415C43.14 40.2727 44.3315 39.9078 45.5573 40.9558C47.0451 42.2284 46.2123 44.655 44.2472 44.8702C43.6765 44.9326 42.6378 44.7299 42.1918 45.1354C41.7457 45.5408 42.46 46.6918 41.805 46.9912C41.4338 47.1628 40.9972 47.1846 40.7726 46.7916C40.5667 46.4267 40.7851 45.9526 40.7788 45.5939C40.7601 44.3743 40.6977 43.1329 40.6977 41.9258C40.6977 41.4798 40.5418 40.3226 41.0533 40.176H41.0564ZM42.7782 41.3769C42.5006 41.4174 42.1294 41.6482 42.0639 41.9383C42.0109 42.1722 42.0764 43.4854 42.1918 43.6507C42.3633 43.894 43.5766 43.8784 43.8854 43.8347C44.3034 43.7786 44.8773 43.2577 44.896 42.821C44.9054 42.5808 44.7619 42.0225 44.5935 41.8478C44.3658 41.6077 43.1057 41.3332 42.7782 41.38V41.3769Z" fill="#FFFDF9"/> <path d="M16.9678 52.4558C17.3702 52.3903 17.6447 52.5587 17.7944 52.9424C17.7663 53.6847 17.7195 54.4333 17.732 55.1756C17.7382 55.5811 17.732 55.971 17.7351 56.3702C17.7351 56.9628 18.0501 57.7083 18.6147 57.9609C19.591 58.3945 20.9446 58.198 21.2316 57.0252C21.5185 55.8525 21.2441 54.321 21.2503 53.1513C21.2534 52.4121 22.133 52.1969 22.4512 52.6242C22.6851 52.9392 22.6009 54.6079 22.6009 55.1008C22.6009 55.2941 22.5198 55.4844 22.5167 55.6965C22.5042 56.679 22.7319 57.2373 22.211 58.2292C21.5622 59.4581 19.3477 59.7607 18.1655 59.2335C17.3858 58.8842 16.8056 58.3945 16.5779 57.5305C16.3502 56.6665 16.3783 53.9966 16.4594 53.0734C16.4906 52.7178 16.5935 52.5182 16.9678 52.4558Z" fill="#FFFDF9"/> <path d="M59.4589 52.4558C59.7927 52.3591 60.8812 52.4402 61.3148 52.4371C61.583 52.4371 61.8637 52.4371 62.132 52.4371C62.5655 52.4402 63.6572 52.3061 63.8537 52.7396C64.3309 53.8001 62.3067 54.5393 62.3223 55.0977C62.3285 55.3597 63.0802 55.6373 63.3172 55.8213C64.1126 56.4264 64.1843 57.2186 63.8537 58.1294C63.6198 58.7688 62.6498 59.4082 61.9823 59.4768C60.9311 59.5829 60.3354 59.4456 59.4496 58.9435C59.3622 58.8936 58.9037 58.4475 58.8881 58.3758C58.8289 58.1512 59.4558 57.6927 59.6648 57.674C60.1451 57.6272 60.167 57.936 60.4945 58.0514C60.822 58.1668 61.5581 58.251 61.8949 58.1887C62.8119 58.0171 62.9991 56.9223 62.1382 56.4825C61.5955 56.2049 59.8239 56.5574 60.4633 55.3347C60.4851 55.291 60.9717 54.7951 61.0497 54.7234C61.3086 54.4832 62.2068 54.1058 61.5706 53.7596C60.9031 53.3946 59.7397 54.0777 59.1439 53.4133C59.1034 53.1451 59.1502 52.5462 59.4621 52.4589L59.4589 52.4558Z" fill="#FFFDF9"/> <path d="M54.9769 8.81982C55.136 8.74496 55.869 8.79174 55.8128 9.05375C55.7692 9.25649 54.3531 10.0799 54.1005 10.2608C52.8965 11.1311 51.7112 12.0106 50.5104 12.8809C50.1704 13.1273 49.9427 13.6918 49.4562 13.1772L48.2834 9.78673C48.1992 9.42492 48.0027 8.93834 48.5204 8.86972C50.4855 8.61084 52.9682 9.11301 54.98 8.81982H54.9769Z" fill="#FFFDF9"/> <path d="M31.7241 9.02271L39.0102 9.03206C39.2629 9.16306 39.2379 9.47497 39.188 9.71826C39.0882 10.2142 38.2648 12.7594 38.0402 13.1368C37.8156 13.5142 37.5879 13.4705 37.2355 13.2802C36.4183 12.8373 35.3609 11.8798 34.5624 11.3121C34.1133 10.9908 33.661 10.6509 33.215 10.339C33.0029 10.1892 31.3872 9.37828 31.7241 9.02582V9.02271Z" fill="#FFFDF9"/> <path d="M51.5334 40.1854C52.6875 40.3258 53.8821 40.1355 55.033 40.2353C55.164 40.2478 55.5726 40.2946 55.6319 40.3819C55.6818 40.6564 55.7223 41.0713 55.582 41.3145C55.4947 41.4674 55.3262 41.5048 55.2171 41.6233C54.8896 41.9727 54.5153 42.2191 54.2408 42.5185C53.5078 43.3264 54.5683 43.3014 54.9894 43.5728C55.7348 44.0531 55.8814 44.7861 55.7068 45.6313C55.66 45.8622 55.2077 46.6201 55.0206 46.7417C54.4965 47.0724 53.3986 47.3406 52.7842 47.2751C52.3537 47.2283 50.947 46.7698 50.7661 46.3737C50.6289 46.0743 50.8815 45.6501 51.1529 45.5658C51.7674 45.3787 52.0481 45.9214 52.5658 45.9932C52.8902 46.0368 53.6762 46.0493 53.9414 45.884C54.8209 45.3319 54.4529 44.3338 53.5265 44.2091C52.9495 44.1311 52.1915 44.443 52.1448 43.5665C52.1011 42.7462 52.7717 42.7337 53.1959 42.216C54.1971 40.9902 52.6157 41.3676 51.9639 41.3644C51.8547 41.3644 51.0718 41.2678 51.0281 41.2459C50.9252 41.196 50.8348 40.9621 50.8192 40.8498C50.7412 40.3071 51.0936 40.2447 51.5365 40.1792L51.5334 40.1854Z" fill="#FFFDF9"/> <path d="M29.1664 40.1823C29.6031 40.1823 30.1957 40.1823 30.23 40.7281C30.3205 42.1254 28.8639 41.1648 28.1028 41.6732C27.7129 41.9321 27.9094 42.1941 27.9094 42.5216C27.9063 43.894 27.9094 45.2664 27.9032 46.6387C27.8003 47.1783 26.5745 47.2844 26.4809 46.5701C26.3624 45.6874 26.5651 44.5053 26.5589 43.5727C26.5589 43.4355 26.4871 43.2857 26.4809 43.1267C26.4715 42.7929 26.6025 42.2034 26.5246 41.9601C26.2439 41.0743 24.4348 41.9383 24.2539 41.1616C24.1447 40.6969 24.1977 40.3008 24.7217 40.2415C25.8976 40.1043 27.9157 40.1791 29.1633 40.1854L29.1664 40.1823Z" fill="#FFFDF9"/> <path d="M52.8746 14.0537C53.2895 13.9602 54.2907 14.113 54.8053 14.1161C55.2701 14.1161 55.7598 14.1255 56.2276 14.1161C56.6144 14.1099 57.8215 13.8447 57.8371 14.4467L57.0261 16.7112C56.9357 16.8671 56.8109 17.048 56.6051 17.0324L52.6313 14.3376L52.6719 14.1504C52.7343 14.1067 52.7998 14.0693 52.8746 14.0537Z" fill="#FFFDF9"/> <path d="M64.0971 14.0538C64.7241 14.1318 68.4139 13.8854 68.6853 14.0694C68.7633 14.1225 68.7695 14.2129 68.7601 14.2971L64.9829 17.0357C64.3841 16.7706 64.3872 16.0157 64.2156 15.4761C64.0971 15.105 63.4889 14.188 64.0971 14.0538Z" fill="#FFFDF9"/> <path d="M33.6548 13.985C33.9979 13.9788 34.3753 13.9663 34.6436 14.2283C34.6904 14.4279 33.8482 14.7898 33.6767 14.9083C32.7909 15.5227 31.9549 16.2432 31.0785 16.8764C30.9101 16.9825 30.5732 17.0261 30.4453 16.8546C30.4297 16.4117 30.1677 16.1278 30.0398 15.7629C29.9899 15.6194 30.0149 15.4572 29.9681 15.3106C29.8839 15.0549 29.5189 14.3999 29.6655 14.1847C29.7934 14.088 29.9619 14.0537 30.1178 14.0381C31.1502 13.932 32.5725 14.0069 33.658 13.985H33.6548Z" fill="#FFFDF9"/> <path d="M19.067 14.0568C20.0994 14.0069 21.3314 14.1379 22.4137 14.1192C22.7787 14.1129 23.1561 13.9133 23.496 14.1504L23.5678 14.4467L22.7849 16.9638C22.4075 17.3381 21.3595 16.2651 21.0226 16.0281C20.5298 15.6818 20.0214 15.345 19.5223 14.9832C19.357 14.8646 18.5086 14.4592 18.5554 14.2283C18.6584 14.1129 18.9235 14.063 19.0638 14.0568H19.067Z" fill="#FFFDF9"/> </g> <defs> <clipPath id="clip0_46_1236"> <rect width="88.8875" height="59.0161" fill="white" transform="translate(0 0.491943)"/> </clipPath> </defs> </svg>